<svg width="250" height="250" viewBox="0 0 250 250" fill="none" xmlns="http://www.w3.org/2000/svg">
<!-- <rect width="250" height="250" fill="#000000ff"/> -->
<path transform="translate(-110, -25) scale(1.2)" d="M144 94.48C160.704 94.48 174.24 105.904 174.24 129.808V164.56H169.44V129.808C169.44 109.456 158.688 99.28 144 99.28C129.312 99.28 118.56 109.456 118.56 129.808V164.56H113.76V129.808C113.76 105.904 127.296 94.48 144 94.48ZM209.76 129.232V94.48H214.56V129.232C214.56 149.584 225.312 159.76 240 159.76C254.688 159.76 265.44 149.584 265.44 129.232V94.48H270.24V129.232C270.24 153.136 256.704 164.56 240 164.56C223.296 164.56 209.76 153.136 209.76 129.232Z" fill="#E66100" id="logo-text"/>
</svg>
