<svg width="380" height="250" viewBox="0 0 380 250" fill="none" xmlns="http://www.w3.org/2000/svg">
<rect width="380" height="250" fill="#00000000"/>
<path d="M144 94.48C160.704 94.48 174.24 105.904 174.24 129.808V164.56H169.44V129.808C169.44 109.456 158.688 99.28 144 99.28C129.312 99.28 118.56 109.456 118.56 129.808V164.56H113.76V129.808C113.76 105.904 127.296 94.48 144 94.48ZM209.76 129.232V94.48H214.56V129.232C214.56 149.584 225.312 159.76 240 159.76C254.688 159.76 265.44 149.584 265.44 129.232V94.48H270.24V129.232C270.24 153.136 256.704 164.56 240 164.56C223.296 164.56 209.76 153.136 209.76 129.232Z" fill="#E66100" id="logo-text"/>
<path d="M99.375 65.375H84.3125V182.125H99.375V185.5H80.875V62H99.375V65.375Z" fill="white" id="left-bracket"/>
<path d="M280.438 62H298.875V185.5H280.438V182.125H295.375V65.375H280.438V62Z" fill="white" id="right-bracket"/>
</svg>
